<?xml version="1.0" encoding="utf-8"?>
<!-- Generator: Adobe Illustrator 16.0.0, SVG Export Plug-In . SVG Version: 6.00 Build 0)  -->
<!DOCTYPE svg PUBLIC "-//W3C//DTD SVG 1.1//EN" "http://www.w3.org/Graphics/SVG/1.1/DTD/svg11.dtd">
<svg version="1.1" id="Layer_1" xmlns="http://www.w3.org/2000/svg" xmlns:xlink="http://www.w3.org/1999/xlink" x="0px" y="0px"
	 width="615.664px" height="229.908px" viewBox="0 0 615.664 229.908" enable-background="new 0 0 615.664 229.908"
	 xml:space="preserve">
<path fill-rule="evenodd" clip-rule="evenodd" fill="#6B8CC7" d="M45.419,164.402c-0.038,4.119-0.008,4.122-4.046,4.122
	c-12,0.002-24,0.001-36,0.001c-0.32,0-0.64,0.002-0.96-0.001c-3.128-0.025-3.24-0.117-3.24-3.246
	C1.168,111.278,1.17,57.279,1.17,3.279c0-0.4-0.013-0.802,0.018-1.2C1.315,0.472,1.58,0.216,3.253,0.087
	c0.398-0.031,0.8-0.018,1.2-0.018c12.64-0.001,25.28,0.033,37.919-0.035c2.024-0.011,3.382,0.587,4.645,2.248
	c9.343,12.285,18.906,24.404,28.168,36.749c11.328,15.098,22.429,30.365,33.63,45.558c0.696,0.942,1.418,1.866,2.128,2.799
	c0.176-0.045,0.353-0.09,0.529-0.135c0.052-0.829,0.145-1.658,0.15-2.488c0.162-26.872,0.318-53.745,0.468-80.618
	c0.023-4.074,0.006-4.078,4.09-4.078c15.44-0.001,30.88-0.002,46.32,0.001c3.556,0.001,3.815,0.192,4.772,3.672
	c0.254,0.922,0.359,1.885,0.579,2.818c0.314,1.335,0.69,1.568,2.05,1.149c3.032-0.933,5.429-2.786,7.031-5.483
	c0.938-1.582,2.077-2.183,3.879-2.18c24.08,0.038,48.162-0.186,72.238,0.112c12.673,0.157,24.499,3.722,34.58,11.798
	c9.114,7.302,14.913,16.672,16.374,28.358c1.337,10.69-1.102,20.542-7.804,29.114c-2.465,3.153-5.337,5.96-8.897,7.943
	c-0.341,0.189-0.649,0.438-1.144,0.778c1.424,1.658,3.527,1.945,5.077,3.088c1.672,1.232,3.392,2.412,4.964,3.762
	c1.508,1.295,2.916,2.721,4.251,4.195c1.339,1.478,2.611,3.03,3.771,4.652c1.161,1.623,2.245,3.319,3.178,5.082
	c0.97,1.832,1.789,3.754,2.544,5.688c0.726,1.858,1.284,3.781,2.265,5.718c0-0.786,0-1.571,0-2.356c0-34.56,0-69.119,0-103.679
	c0-4.227,0.002-4.229,4.185-4.229c12.079-0.001,24.159-0.003,36.239,0.001c3.711,0.001,3.803,0.09,3.804,3.727
	c0.004,17.84,0.002,35.68,0.002,53.52c0,0.479-0.003,0.96,0.001,1.439c0.022,3.127,0.118,3.242,3.244,3.243
	c17.04,0.007,34.08,0.004,51.12,0.001c0.56,0,1.12-0.015,1.678-0.052c0.948-0.062,1.456-0.59,1.499-1.533
	c0.035-0.799,0.046-1.6,0.046-2.398c0.003-17.761,0.005-35.521,0.001-53.28c-0.001-4.755-0.247-4.679,4.787-4.673
	c12,0.015,24,0.005,36,0.005c0.479,0,0.96-0.005,1.439,0.002c2.806,0.042,2.97,0.185,2.973,3.038
	c0.01,13.439,0.005,26.88,0.005,40.319c0,21.92,0,43.841,0,65.76c0,0.937,0,1.873,0,2.809c0.145,0.036,0.289,0.072,0.434,0.108
	c0.211-0.36,0.472-0.7,0.625-1.083c7.746-19.474,15.487-38.948,23.221-58.427c6.552-16.505,13.093-33.014,19.642-49.52
	c1.188-2.993,1.194-3.003,4.337-3.004c12.8-0.005,25.6-0.002,38.4-0.002c0.319,0,0.641,0.023,0.959,0.002
	c1.656-0.106,2.623,0.603,3.243,2.202c2.922,7.532,5.943,15.025,8.927,22.533c9.775,24.605,19.554,49.211,29.326,73.818
	c8.06,20.295,16.114,40.592,24.172,60.889c0.648,1.635,1.329,3.258,1.944,4.905c0.412,1.104,0.734,2.243,1.202,3.692
	c-0.987,0.165-1.726,0.396-2.465,0.396c-15.2,0.021-30.399,0.023-45.6,0.008c-2.325-0.002-2.488-0.149-3.256-2.37
	c-1.882-5.442-3.743-10.893-5.615-16.339c-1.143-3.324-1.145-3.333-4.542-3.333c-18.24-0.004-36.48-0.002-54.72-0.001
	c-0.64,0-1.28,0.02-1.92,0.025c-0.992,0.009-1.66,0.46-2,1.408c-0.484,1.355-1.009,2.697-1.48,4.057
	c-1.6,4.609-3.182,9.226-4.773,13.837c-0.915,2.649-0.981,2.717-3.733,2.722c-7.92,0.013-15.84,0.005-23.76,0.005
	c-14.722,0-29.443,0.002-44.165-0.002c-3.594-0.001-3.603-0.009-3.604-3.599c-0.003-18.16,0-36.32-0.002-54.479
	c-0.001-3.849-0.006-3.854-3.825-3.854c-16.72-0.002-33.439-0.003-50.159,0c-3.595,0.001-3.604,0.01-3.604,3.594
	c-0.003,18.16,0,36.32-0.002,54.48c-0.001,3.854-0.005,3.858-3.824,3.859c-12.16,0.002-24.319,0.001-36.479,0.001
	c-0.4,0-0.801,0.006-1.2-0.004c-2.485-0.06-2.713-0.255-2.716-2.802c-0.016-12.48-0.008-24.96-0.008-37.44c0-0.633,0-1.267,0-1.899
	c-0.086,0.03-0.172,0.061-0.258,0.092c-0.914,3.227-1.619,6.531-2.781,9.665c-4.594,12.388-13.316,20.858-25.308,26.106
	c-8.156,3.569-16.732,5.363-25.587,5.843c-4.626,0.25-9.262,0.408-13.894,0.42c-18.16,0.047-36.32,0.02-54.479,0.02
	c-0.952,0-1.903,0-2.854,0c-0.038-0.114-0.076-0.229-0.114-0.344c0.516-0.253,1.064-0.456,1.542-0.768
	c1.331-0.864,2.806-1.601,3.907-2.703c1.993-1.997,2.247-5.398,0.872-7.825c-0.879-1.551-1.721-1.847-3.343-1.076
	c-1.589,0.756-3.132,1.608-4.725,2.355c-2.038,0.955-2.487,0.8-3.633-1.189c-0.397-0.689-0.656-1.458-1.038-2.158
	c-0.64-1.174-1.435-1.375-2.21-0.312c-0.926,1.268-1.754,2.7-2.222,4.188c-0.675,2.142-1.024,4.316-3.102,5.738
	c-3,2.055-6.007,4.009-9.806,4.082c-1.988,0.038-3.978,0.007-6.069-0.385c0.439-0.214,0.862-0.478,1.32-0.634
	c8.434-2.883,12.617-9.443,12.103-18.5c-0.014-0.239-0.146-0.506-0.077-0.709c0.191-0.557,0.315-1.31,0.73-1.58
	c0.729-0.476,1.566-0.203,2.127,0.5c0.293,0.368,0.497,0.819,0.682,1.258c0.899,2.136,2.531,3.128,4.773,2.71
	c1.622-0.302,3.312-0.723,4.729-1.52c2.552-1.435,3.622-4.768,2.75-7.542c-0.508-1.614-1.242-2.095-2.87-1.667
	c-1.545,0.405-3.039,1.009-4.582,1.425c-2.317,0.624-2.961,0.221-3.688-2.092c-0.28-0.892-0.586-1.773-0.95-2.871
	c-0.708,0.318-1.253,0.443-1.643,0.759c-1.592,1.289-2.743,2.92-3.318,4.893c-0.594,2.038-1.939,3.219-3.91,3.851
	c-3.275,1.051-6.529,2.168-9.799,3.233c-2.206,0.718-4.433,1.37-6.634,2.1c-4.004,1.327-4.094,1.446-2.285,5.359
	c1.222,2.644,2.068,5.365,2.418,8.247c0.105,0.863,0.175,1.729,0.288,2.859c-0.798,0.117-1.468,0.301-2.138,0.302
	c-10.32,0.018-20.64-0.016-30.959,0.037c-1.754,0.009-2.767-0.83-3.739-2.13c-11.45-15.306-22.955-30.57-34.403-45.878
	c-9.293-12.426-18.527-24.896-27.8-37.338c-0.541-0.726-3.871-3.781-4.804-4.838L45.419,164.402z M219.233,112.777
	c0,4.159-0.013,8.318,0.004,12.477c0.011,2.764,0.146,2.916,2.795,2.921c7.838,0.016,15.676,0.006,23.514,0.001
	c2.84-0.002,5.585-0.569,8.161-1.719c5.73-2.556,8.871-7.066,9.015-13.303c0.143-6.171-2.402-11.028-8.201-13.761
	c-2.556-1.203-5.288-1.86-8.124-1.872c-8.158-0.032-16.316-0.03-24.474-0.015c-2.488,0.005-2.671,0.209-2.685,2.794
	C219.218,104.459,219.234,108.618,219.233,112.777z M170.89,121.623c-1.224,1.354-2.817,2.658-3.802,4.321
	c-1.263,2.135-2.847,3.364-5.292,3.535c-0.477,0.033-0.947,0.15-1.422,0.218c-5.143,0.729-10.294,1.405-15.425,2.208
	c-2.562,0.4-2.835,0.838-2.25,3.375c0.869,3.766,1.327,7.553,1.11,11.417c-0.031,0.555,0.004,1.123,0.084,1.674
	c0.163,1.113,0.78,1.683,1.97,1.606c3.863-0.248,7.604-0.953,11.116-2.677c3.256-1.599,5.983-3.829,7.525-7.119
	c1.004-2.141,1.526-4.517,2.159-6.816c0.293-1.065,0.157-2.401,1.668-2.526c1.529-0.127,1.667,1.187,2.012,2.241
	c0.418,1.28,1.142,2.506,2.527,2.612c1.883,0.145,3.882,0.212,5.677-0.269c2.877-0.771,4.536-3.865,4.087-6.798
	c-0.205-1.34-0.658-1.812-2.066-1.806c-1.03,0.005-2.061,0.223-3.09,0.354c-4.224,0.536-5.195-0.402-4.776-4.638
	c0.014-0.138,0.162-0.263,0.391-0.616c0.795,0,1.738,0.044,2.676-0.008c3.105-0.173,5.499-2.409,5.816-5.392
	c0.17-1.604-0.444-2.448-2.042-2.618c-1.031-0.11-2.078-0.057-3.117-0.09c-2.985-0.097-3.32-0.424-3.406-3.304
	c-0.007-0.24,0.014-0.481-0.007-0.72c-0.141-1.6-0.749-2.042-2.202-1.278c-1.179,0.62-2.375,1.418-3.213,2.428
	c-1.583,1.908-3.454,2.586-5.884,2.463c-5.105-0.261-10.219-0.395-15.331-0.494c-2.762-0.054-3.104,0.297-3.06,2.994
	c0.057,3.448,0.032,6.875-0.855,10.243c-0.14,0.531-0.132,1.114-0.116,1.671c0.047,1.679,0.438,2.164,2.124,2.24
	c1.995,0.092,4.015,0.193,5.994-0.01c7.425-0.76,12.707-4.419,15.224-11.645c0.184-0.528,0.267-1.172,0.625-1.538
	c0.449-0.459,1.135-0.932,1.716-0.929c0.39,0.002,0.905,0.763,1.137,1.284C169.797,118.626,170.301,120.088,170.89,121.623z
	 M543.259,105.794c-0.32-0.99-0.568-1.811-0.849-2.619c-4.191-12.082-8.398-24.158-12.57-36.247
	c-0.808-2.342-1.467-4.733-2.231-7.091c-0.18-0.556-0.505-1.063-0.83-1.729c-5.51,15.999-10.932,31.747-16.355,47.498
	C512.296,106.213,539.771,106.374,543.259,105.794z M233.071,62.001c0-0.009,0-0.017,0-0.025c3.593,0,7.194,0.149,10.775-0.057
	c2.116-0.121,4.296-0.545,6.276-1.288c4.282-1.608,6.423-5.042,6.47-9.404c0.047-4.516-2.773-7.907-6.684-9.238
	c-2.459-0.837-5.113-1.427-7.698-1.506c-6.781-0.206-13.572-0.087-20.358-0.066c-2.396,0.008-2.598,0.211-2.609,2.608
	c-0.025,5.429-0.026,10.858,0,16.288c0.012,2.474,0.229,2.666,2.81,2.683C225.725,62.019,229.398,62.001,233.071,62.001z
	 M175.336,94.638c-1.153,0.181-1.974,0.131-2.612,0.447c-1.203,0.597-2.396,1.292-3.416,2.155c-1.049,0.889-2.135,1.364-3.486,1.248
	c-0.953-0.082-1.914-0.126-2.855-0.282c-4.568-0.763-9.126-1.578-13.696-2.331c-1.966-0.324-2.229-0.108-2.657,1.754
	c-0.072,0.312-0.172,0.626-0.181,0.94c-0.098,3.481-1.1,6.751-2.213,10.015c-0.676,1.983-0.296,2.707,1.741,3.068
	c2.267,0.401,4.585,0.656,6.886,0.688c6.535,0.09,11.299-2.859,14.266-8.698c0.323-0.635,0.635-1.32,1.122-1.817
	c0.773-0.79,1.951-0.468,2.282,0.583c0.164,0.521,0.065,1.119,0.198,1.655c0.167,0.681,0.295,1.453,0.705,1.979
	c2.65,3.397,9.008,2.402,10.606-1.619c0.813-2.047,0.328-2.965-1.838-3.431c-1.326-0.285-2.668-0.5-3.984-0.82
	c-1.094-0.267-1.577-0.986-1.361-2.148C175.014,97.094,175.119,96.152,175.336,94.638z M178.472,81.575
	c-2.112-0.559-3.645,0.199-4.913,1.245c-1.945,1.604-3.924,1.721-6.248,1.047c-4.138-1.2-8.325-2.237-12.506-3.286
	c-2.584-0.648-2.99-0.294-3.622,2.29c-0.585,2.391-1.296,4.753-2.01,7.11c-0.253,0.835-0.741,1.597-1.011,2.428
	c-0.466,1.435-0.287,1.802,1.153,2.351c2.564,0.978,5.226,1.281,7.974,1.357c5.652,0.159,9.827-2.213,12.819-6.899
	c0.384-0.603,0.763-1.242,1.28-1.717c0.774-0.712,1.777-0.402,2.05,0.6c0.143,0.525,0.134,1.108,0.111,1.662
	c-0.07,1.76,0.811,2.924,2.364,3.504c1.103,0.412,2.294,0.723,3.463,0.793c2.247,0.133,3.77-1.141,4.757-3.033
	c0.873-1.674,0.394-2.668-1.426-3.227c-0.838-0.258-1.703-0.434-2.54-0.697c-2.288-0.719-2.556-1.188-2.078-3.463
	C178.22,83.03,178.318,82.415,178.472,81.575z M182.012,68.094c-2.14-0.726-3.633,0.178-4.973,1.109
	c-1.532,1.065-3.052,1.246-4.759,0.732c-1.607-0.483-3.222-0.942-4.831-1.42c-2.683-0.795-5.349-1.648-8.05-2.373
	c-1.638-0.44-2.198-0.195-2.525,1.287c-0.729,3.302-1.894,6.418-3.351,9.462c-0.712,1.488-0.449,2.178,1.063,2.57
	c2.69,0.697,5.442,1.458,8.19,1.553c3.721,0.129,7.055-1.291,9.589-4.173c0.84-0.954,1.473-2.1,2.362-2.999
	c0.422-0.426,1.25-0.688,1.84-0.61c0.304,0.039,0.56,0.967,0.71,1.527c0.239,0.89,0.128,1.968,0.597,2.684
	c1.336,2.042,4.975,2.83,7.107,1.567c0.847-0.501,1.644-1.305,2.121-2.162c0.783-1.406,0.283-2.398-1.255-2.971
	c-0.897-0.335-1.845-0.538-2.734-0.89c-1.836-0.726-1.939-0.977-1.502-2.863C181.751,69.521,181.853,68.909,182.012,68.094z
	 M185.37,53.815c-1.906-0.415-3.201,0.209-4.325,1.1c-1.606,1.275-3.271,1.392-5.176,0.836c-3.681-1.075-7.386-2.071-11.1-3.029
	c-2.204-0.569-2.707-0.256-3.122,1.989c-0.439,2.373-1.018,4.68-2.193,6.808c-0.153,0.277-0.25,0.588-0.349,0.892
	c-0.582,1.788-0.354,2.315,1.389,2.855c1.143,0.354,2.31,0.693,3.49,0.854c5.919,0.802,10.974-0.527,14.268-6.002
	c0.124-0.206,0.209-0.486,0.393-0.594c0.508-0.295,1.138-0.802,1.57-0.683c0.382,0.105,0.653,0.914,0.811,1.459
	c0.214,0.74,0.052,1.666,0.436,2.267c1.965,3.075,7.207,2.691,8.835-0.584c0.656-1.319,0.392-2.086-1.019-2.626
	c-1.042-0.398-2.14-0.647-3.194-1.018c-1.054-0.371-1.523-1.088-1.199-2.242C185.073,55.425,185.179,54.729,185.37,53.815z
	 M187.412,39.171c-1.835-0.44-3.067,0.508-4.192,1.482c-1.137,0.984-2.316,1.273-3.76,0.962c-1.873-0.405-3.769-0.705-5.653-1.06
	c-1.884-0.354-3.756-0.794-5.653-1.054c-1.609-0.22-2.038,0.101-2.286,1.679c-0.423,2.687-0.884,5.339-1.94,7.882
	c-0.561,1.35-0.204,1.86,1.251,2.261c2.979,0.821,6.044,0.964,9.001,0.153c1.552-0.426,3.083-1.365,4.303-2.438
	c1.225-1.077,2.01-2.642,3.072-3.923c0.41-0.493,1.054-0.792,1.591-1.179c0.321,0.497,0.883,0.977,0.919,1.494
	c0.143,2.05,1.394,2.951,3.176,3.368c1.832,0.429,3.509,0.18,4.802-1.341c1.562-1.838,1.123-3.21-1.185-3.757
	C187.404,42.884,187.404,42.884,187.412,39.171z M187.375,23.501c-0.927,0.523-1.853,0.771-2.339,1.372
	c-1.548,1.913-3.538,2.281-5.794,2.06c-1.19-0.117-2.382-0.229-3.576-0.286c-1.833-0.089-3.668-0.146-5.502-0.182
	c-0.983-0.02-1.704,0.334-1.823,1.456c-0.279,2.608-0.58,5.215-0.87,7.822c-0.104,0.942,0.25,1.622,1.246,1.67
	c2.706,0.13,5.429,0.408,8.049-0.632c3.174-1.26,5.204-3.562,6.363-6.745c0.208-0.572,0.864-0.98,1.312-1.464
	c0.372,0.454,0.887,0.852,1.088,1.372c0.723,1.876,1.681,2.613,3.724,2.664c1.742,0.043,3.335-0.948,4.027-2.506
	c0.691-1.556,0.204-2.485-1.497-2.64C187.925,27.113,188.646,27.586,187.375,23.501z M185.511,7.69
	c-1.462,0.035-2.144,0.97-2.734,1.892c-0.849,1.327-1.986,1.954-3.542,2.101c-2.778,0.261-5.551,0.604-8.316,0.98
	c-2.146,0.292-2.369,0.702-2.105,2.832c0.205,1.657,0.344,3.327,0.415,4.995c0.099,2.348,0.549,2.815,2.912,2.485
	c4.516-0.63,9.195-2.835,10.15-8.913c0.079-0.507,0.703-0.928,1.073-1.389c0.402,0.335,0.896,0.605,1.191,1.018
	c1.384,1.934,4.315,2.279,5.975,0.658c0.886-0.865,1.333-2.452,0.885-3.282c-0.62-1.149-1.627-0.707-2.551-0.58
	c-0.079,0.011-0.158,0.026-0.237,0.034c-1.994,0.186-2.153,0.063-2.739-2.024C185.825,8.273,185.691,8.069,185.511,7.69z"/>
<path fill-rule="evenodd" clip-rule="evenodd" fill="#6B8CC7" d="M183.665,168.512c-1.027,0-2.057,0.045-3.081-0.011
	c-1.726-0.094-2.779-1.344-2.5-3.02c0.066-0.401,0.506-1.054,0.769-1.051c0.727,0.01,1.542,0.153,2.147,0.527
	c0.576,0.355,0.881,1.121,1.396,1.611c0.508,0.482,1.13,0.845,1.702,1.26C183.954,168.057,183.809,168.284,183.665,168.512z"/>
<g>
	<g>
		<path fill="#172F43" d="M34.779,211.916c7.105,1.728,10.801,4.271,10.801,9.889c0,6.336-4.944,10.081-12.001,10.081
			c-5.137,0-9.985-1.776-14.018-5.377l3.553-4.225c3.216,2.784,6.432,4.369,10.609,4.369c3.648,0,5.952-1.681,5.952-4.272
			c0-2.448-1.344-3.745-7.584-5.185c-7.153-1.729-11.185-3.841-11.185-10.081c0-5.856,4.8-9.793,11.473-9.793
			c4.896,0,8.785,1.488,12.193,4.225l-3.168,4.464c-3.024-2.256-6.049-3.456-9.121-3.456c-3.456,0-5.472,1.776-5.472,4.032
			C26.811,209.228,28.347,210.38,34.779,211.916z"/>
		<path fill="#172F43" d="M62.188,231.405h-5.953v-28.131H45.578v-5.472h27.267v5.472H62.188V231.405z"/>
		<path fill="#172F43" d="M96.795,231.405l-8.256-11.713h-7.393v11.713h-5.905v-33.603h14.978c7.729,0,12.481,4.08,12.481,10.656
			c0,5.568-3.312,8.929-8.017,10.226l9.073,12.721H96.795z M89.739,203.179h-8.592v11.281h8.641c4.224,0,6.913-2.208,6.913-5.665
			C96.7,205.099,94.107,203.179,89.739,203.179z"/>
		<path fill="#172F43" d="M121.178,231.981c-10.321,0-17.521-7.825-17.521-17.33c0-9.504,7.297-17.425,17.618-17.425
			s17.521,7.824,17.521,17.329S131.5,231.981,121.178,231.981z M121.178,202.65c-6.672,0-11.329,5.329-11.329,11.905
			c0,6.577,4.752,12.001,11.425,12.001c6.673,0,11.329-5.328,11.329-11.905C132.604,208.075,127.851,202.65,121.178,202.65z"/>
		<path fill="#172F43" d="M165.579,197.803h5.809v33.603h-4.944l-18.53-23.906v23.906h-5.809v-33.603h5.473l18.001,23.233V197.803z"
			/>
		<path fill="#172F43" d="M192.122,231.981c-10.513,0-17.426-7.488-17.426-17.33c0-9.456,7.201-17.425,17.33-17.425
			c5.856,0,9.457,1.632,12.913,4.561l-3.744,4.464c-2.592-2.208-5.137-3.601-9.409-3.601c-6.193,0-10.897,5.377-10.897,11.905
			c0,6.961,4.56,12.049,11.425,12.049c3.168,0,6.049-1.008,8.113-2.544v-6.288h-8.593v-5.137h14.305v14.113
			C202.827,229.581,198.075,231.981,192.122,231.981z"/>
		<path fill="#172F43" d="M246.65,206.396c0,4.128-2.304,6.24-4.8,7.536c3.936,1.345,6.672,3.601,6.672,8.209
			c0,6.049-4.944,9.265-12.433,9.265h-15.553v-33.603h15.073C242.377,197.803,246.65,201.114,246.65,206.396z M240.746,207.355
			c0-2.736-2.112-4.32-5.905-4.32h-8.497v8.929h8.064C238.201,211.964,240.746,210.476,240.746,207.355z M242.618,221.517
			c0-2.881-2.256-4.561-6.913-4.561h-9.361v9.217h9.793C240.169,226.173,242.618,224.589,242.618,221.517z"/>
		<path fill="#172F43" d="M266.424,231.981c-10.321,0-17.521-7.825-17.521-17.33c0-9.504,7.297-17.425,17.618-17.425
			s17.522,7.824,17.522,17.329S276.746,231.981,266.424,231.981z M266.424,202.65c-6.672,0-11.329,5.329-11.329,11.905
			c0,6.577,4.752,12.001,11.425,12.001c6.673,0,11.329-5.328,11.329-11.905C277.849,208.075,273.097,202.65,266.424,202.65z"/>
		<path fill="#172F43" d="M309.864,197.803h5.809v33.603h-4.944l-18.529-23.906v23.906h-5.809v-33.603h5.473l18.001,23.233V197.803z
			"/>
		<path fill="#172F43" d="M345.384,203.083h-19.01v8.736h16.85v5.28h-16.85v9.025h19.25v5.28H320.47v-33.603h24.914V203.083z"/>
		<path fill="#172F43" d="M363.671,211.916c7.104,1.728,10.801,4.271,10.801,9.889c0,6.336-4.944,10.081-12.001,10.081
			c-5.136,0-9.984-1.776-14.017-5.377l3.552-4.225c3.217,2.784,6.433,4.369,10.609,4.369c3.648,0,5.952-1.681,5.952-4.272
			c0-2.448-1.344-3.745-7.584-5.185c-7.153-1.729-11.186-3.841-11.186-10.081c0-5.856,4.801-9.793,11.473-9.793
			c4.896,0,8.785,1.488,12.193,4.225l-3.168,4.464c-3.024-2.256-6.049-3.456-9.121-3.456c-3.456,0-5.473,1.776-5.473,4.032
			C355.703,209.228,357.239,210.38,363.671,211.916z"/>
		<path fill="#172F43" d="M419.353,231.405h-6.241l-3.408-8.112h-15.889l-3.457,8.112h-6.048l14.785-33.843h5.473L419.353,231.405z
			 M401.735,204.619l-5.76,13.441h11.568L401.735,204.619z"/>
		<path fill="#172F43" d="M434.903,223.148h-0.192l-10.513-15.745v24.002h-5.809v-33.603h6.289l10.225,15.889l10.225-15.889h6.289
			v33.603h-5.905v-24.098L434.903,223.148z"/>
		<path fill="#172F43" d="M479.208,203.083h-19.01v8.736h16.85v5.28h-16.85v9.025h19.25v5.28h-25.154v-33.603h24.914V203.083z"/>
		<path fill="#172F43" d="M504.167,231.405l-8.257-11.713h-7.393v11.713h-5.904v-33.603h14.978c7.729,0,12.48,4.08,12.48,10.656
			c0,5.568-3.312,8.929-8.017,10.226l9.073,12.721H504.167z M497.11,203.179h-8.593v11.281h8.641c4.225,0,6.913-2.208,6.913-5.665
			C504.071,205.099,501.478,203.179,497.11,203.179z"/>
		<path fill="#172F43" d="M518.756,197.803v33.603h-5.904v-33.603H518.756z"/>
		<path fill="#172F43" d="M541.414,231.981c-9.793,0-17.09-7.633-17.09-17.33c0-9.601,7.152-17.425,17.33-17.425
			c6.192,0,9.937,2.16,13.152,5.232l-3.792,4.368c-2.688-2.496-5.568-4.177-9.409-4.177c-6.432,0-11.089,5.281-11.089,11.905
			c0,6.625,4.657,12.001,11.089,12.001c4.129,0,6.77-1.68,9.649-4.368l3.792,3.84C551.542,229.677,547.702,231.981,541.414,231.981z
			"/>
		<path fill="#172F43" d="M589.559,231.405h-6.241l-3.408-8.112h-15.889l-3.457,8.112h-6.048l14.785-33.843h5.473L589.559,231.405z
			 M571.941,204.619l-5.76,13.441h11.568L571.941,204.619z"/>
	</g>
</g>
</svg>
